# xmcd CD database file
#
# Track frame offsets:
#	150
#	19137
#	46772
#	70257
#	94532
#	107152
#	131610
#	151530
#	178292
#	203215
#	223257
#	241950
#	263430
#	287332
#	305390
#
# Disc length: 4582 seconds
#
# Revision: 1
# Processed by: cddbd v1.5.2PL0 Copyright (c) Steve Scherf et al.
# Submitted via: CDex 1.70beta2
#
DISCID=c811e40f
DTITLE=Various Artist - Montecarlo Nights - Nouveau Beat 03 - CD 1
DYEAR=2003
DGENRE=Jazz
TTITLE0=The Karminsky Experience Inc - Departures
TTITLE1=Doc K - Media Luna
TTITLE2=Moody 27 - Love Is Gone
TTITLE3=Chieko Kimbara - O Sorriso Da Vida
TTITLE4=National Simfhony Orchestra - La Finestra Di Fronte
TTITLE5=Ralph Mierz and The Jack Herren Band - Nikita
TTITLE6=Jakatta - It Will Be
TTITLE7=Technozoide Ft Patricia Marx - Miracle
TTITLE8=Bliss - Wish You Were Here
TTITLE9=Les Nubians - J'Veux D'La Musique (Tout Le Temps)
TTITLE10=Bob Belden Project - Kiss (New Breed Funk Mix)
TTITLE11=Micatone - Shake It Baby
TTITLE12=Jakatta - The Other World
TTITLE13=Charles Schillings - Tengo Nada (Sporto Kantes Mix)
TTITLE14=Black Mighty Orchestra - Ocean Beach (Cybophonia Cinematic Remix)
EXTD=YEAR: 2003
EXTT0=
EXTT1=
EXTT2=
EXTT3=
EXTT4=
EXTT5=
EXTT6=
EXTT7=
EXTT8=
EXTT9=
EXTT10=
EXTT11=
EXTT12=
EXTT13=
EXTT14=
PLAYORDER=
